<svg xmlns="http://www.w3.org/2000/svg" viewBox="0 0 200 200" fill="none">
  <g transform="translate(100 100)">
    <!-- Astronaut Body -->
    <path d="M-20 -10 Q-10 -30 10 -30 Q30 -30 20 -10 L25 20 Q25 40 0 40 Q-25 40 -25 20 Z" fill="#ffffff" stroke="#000000" stroke-width="2"/>
    
    <!-- Helmet -->
    <circle cx="0" cy="-20" r="15" fill="#c7d2fe" stroke="#000000" stroke-width="2"/>
    <path d="M-12 -20 Q0 -15 12 -20" stroke="#000000" stroke-width="1" fill="none"/>
    
    <!-- Backpack -->
    <rect x="-15" y="-5" width="30" height="25" rx="5" fill="#94a3b8" stroke="#000000" stroke-width="2"/>
    
    <!-- Arms -->
    <path d="M-25 -10 Q-40 0 -35 20" stroke="#ffffff" stroke-width="8" fill="none"/>
    <path d="M25 -10 Q40 0 35 20" stroke="#ffffff" stroke-width="8" fill="none"/>
    
    <!-- Legs -->
    <path d="M-10 40 L-15 60" stroke="#ffffff" stroke-width="8" fill="none"/>
    <path d="M10 40 L15 60" stroke="#ffffff" stroke-width="8" fill="none"/>
    
    <!-- Tether Line (floating effect) -->
    <path d="M0 40 C-20 50 -30 70 -20 90" stroke="#94a3b8" stroke-width="2" stroke-dasharray="4 4" fill="none">
      <animateTransform
        attributeName="transform"
        type="rotate"
        from="0 0 40"
        to="360 0 40"
        dur="10s"
        repeatCount="indefinite"/>
    </path>
  </g>
  
  <!-- Floating Animation -->
  <animateTransform
    attributeName="transform"
    type="translate"
    values="0,0; 0,-10; 0,0"
    dur="4s"
    repeatCount="indefinite"
    additive="sum"/>
</svg>